# xmcd
#
# Track frame offsets:
#	150
#	17647
#	34971
#	51921
#	70571
#	88486
#	104019
#	121132
#	138690
#	157911
#	173287
#	187811
#	203278
#	220021
#	238327
#
# Disc length: 3424 seconds
#
# Revision: 0
# Processed by: cddbd v1.5.2PL0 Copyright (c) Steve Scherf et al.
# Submitted via: audiograbber 1.83.01
#
DISCID=c70d5e0f
DTITLE=Various Artist - CB - Country Hits - January 2008
DYEAR=2008
DGENRE=Karaoke
TTITLE0=Joe Nichols - It Ain't No Crime
TTITLE1=Dierks Bentley - Trying To Stop Your Leaving
TTITLE2=Carrie Underwood - All-American Girl
TTITLE3=James Otto - Just Got Started Lovin' You
TTITLE4=Star De Azlan - She's Pretty
TTITLE5=Whiskey Falls - Falling Into You
TTITLE6=Carter's Chord - Youing Love
TTITLE7=Trace Adkins - You're Gonna Miss This
TTITLE8=Trisha Yearwood - This Is Me You're Talking To
TTITLE9=Ashton Shepherd - Takin' Off This Pain
TTITLE10=Miranda Lambert - Gunpowder and Lead
TTITLE11=Rockie Lynne - I Can't Believe It's Me
TTITLE12=Jypsi - I Don't Love You Like That
TTITLE13=Crossin Dixon - Make You Mine
TTITLE14=Halfway To Hazard - Devil and the Cross
EXTD=
EXTT0=
EXTT1=
EXTT2=
EXTT3=
EXTT4=
EXTT5=
EXTT6=
EXTT7=
EXTT8=
EXTT9=
EXTT10=
EXTT11=
EXTT12=
EXTT13=
EXTT14=
PLAYORDER=
